<svg xmlns="http://www.w3.org/2000/svg" xmlns:xlink="http://www.w3.org/1999/xlink" width="1920" zoomAndPan="magnify" viewBox="0 0 1440 809.999993" height="1080" preserveAspectRatio="xMidYMid meet" version="1.0"><defs><g/></defs><rect x="-144" width="1728" fill="#ffffff" y="-80.999999" height="971.999992" fill-opacity="1"/><rect x="-144" width="1728" fill="#ffffff" y="-80.999999" height="971.999992" fill-opacity="1"/><g fill="#720606" fill-opacity="1"><g transform="translate(79.939454, 252.667039)"><g><path d="M 25.03125 -72.6875 L 43.828125 -72.6875 L 73.234375 0 L 51.921875 0 L 48.203125 -9.84375 L 20.65625 -9.84375 L 16.9375 0 L -4.265625 0 Z M 27 -26.453125 L 41.859375 -26.453125 L 35.09375 -43.9375 L 34.546875 -46.5625 L 34.328125 -46.5625 L 33.78125 -43.9375 Z M 27 -26.453125 "/></g></g></g><g fill="#720606" fill-opacity="1"><g transform="translate(152.304345, 252.667039)"><g><path d="M 33.890625 -57.609375 C 37.679688 -57.609375 41.234375 -57.078125 44.546875 -56.015625 C 47.859375 -54.960938 50.84375 -53.429688 53.5 -51.421875 C 56.164062 -49.421875 58.445312 -46.960938 60.34375 -44.046875 C 62.238281 -41.140625 63.625 -37.828125 64.5 -34.109375 L 44.484375 -34.109375 C 43.460938 -36.296875 42.078125 -38.003906 40.328125 -39.234375 C 38.585938 -40.472656 36.476562 -41.09375 34 -41.09375 C 32.175781 -41.09375 30.515625 -40.726562 29.015625 -40 C 27.523438 -39.28125 26.285156 -38.316406 25.296875 -37.109375 C 24.316406 -35.910156 23.550781 -34.507812 23 -32.90625 C 22.457031 -31.300781 22.1875 -29.625 22.1875 -27.875 C 22.1875 -26.125 22.457031 -24.445312 23 -22.84375 C 23.550781 -21.238281 24.316406 -19.816406 25.296875 -18.578125 C 26.285156 -17.335938 27.523438 -16.351562 29.015625 -15.625 C 30.515625 -14.894531 32.175781 -14.53125 34 -14.53125 C 36.476562 -14.53125 38.609375 -15.148438 40.390625 -16.390625 C 42.171875 -17.628906 43.535156 -19.378906 44.484375 -21.640625 L 64.5 -21.640625 C 63.769531 -17.921875 62.457031 -14.625 60.5625 -11.75 C 58.664062 -8.875 56.347656 -6.414062 53.609375 -4.375 C 50.878906 -2.332031 47.820312 -0.785156 44.4375 0.265625 C 41.050781 1.328125 37.535156 1.859375 33.890625 1.859375 C 29.660156 1.859375 25.648438 1.128906 21.859375 -0.328125 C 18.066406 -1.785156 14.75 -3.804688 11.90625 -6.390625 C 9.070312 -8.984375 6.816406 -12.097656 5.140625 -15.734375 C 3.460938 -19.378906 2.625 -23.390625 2.625 -27.765625 C 2.625 -32.140625 3.441406 -36.164062 5.078125 -39.84375 C 6.722656 -43.519531 8.960938 -46.671875 11.796875 -49.296875 C 14.640625 -51.921875 17.957031 -53.960938 21.75 -55.421875 C 25.539062 -56.878906 29.585938 -57.609375 33.890625 -57.609375 Z M 33.890625 -57.609375 "/></g></g></g><g fill="#720606" fill-opacity="1"><g transform="translate(219.203619, 252.667039)"><g><path d="M 10.0625 -54.65625 L 10.0625 -70.71875 L 29.625 -70.828125 L 29.625 -55.640625 L 44.375 -55.640625 L 41.203125 -39.359375 L 29.625 -39.359375 L 29.625 -22.1875 C 29.625 -19.925781 30.097656 -18.210938 31.046875 -17.046875 C 31.992188 -15.878906 33.597656 -15.296875 35.859375 -15.296875 L 45.03125 -15.296875 L 44.921875 0.21875 L 34 0.21875 C 25.757812 0.21875 19.707031 -1.457031 15.84375 -4.8125 C 11.988281 -8.164062 10.0625 -13.882812 10.0625 -21.96875 L 10.0625 -39.359375 L 1.640625 -39.359375 L 1.640625 -54.65625 Z M 10.0625 -54.65625 "/></g></g></g><g fill="#720606" fill-opacity="1"><g transform="translate(265.989387, 252.667039)"><g><path d="M 2.84375 -55.640625 L 22.625 -55.640625 L 22.625 0 L 2.84375 0 Z M 1.53125 -70.171875 C 1.53125 -71.773438 1.835938 -73.175781 2.453125 -74.375 C 3.078125 -75.582031 3.914062 -76.601562 4.96875 -77.4375 C 6.03125 -78.28125 7.253906 -78.898438 8.640625 -79.296875 C 10.023438 -79.703125 11.445312 -79.90625 12.90625 -79.90625 C 14.351562 -79.90625 15.769531 -79.703125 17.15625 -79.296875 C 18.539062 -78.898438 19.757812 -78.28125 20.8125 -77.4375 C 21.875 -76.601562 22.710938 -75.582031 23.328125 -74.375 C 23.953125 -73.175781 24.265625 -71.773438 24.265625 -70.171875 C 24.265625 -68.578125 23.9375 -67.160156 23.28125 -65.921875 C 22.625 -64.679688 21.765625 -63.640625 20.703125 -62.796875 C 19.648438 -61.960938 18.429688 -61.34375 17.046875 -60.9375 C 15.660156 -60.539062 14.242188 -60.34375 12.796875 -60.34375 C 11.335938 -60.34375 9.878906 -60.578125 8.421875 -61.046875 C 6.960938 -61.523438 5.722656 -62.273438 4.703125 -63.296875 C 3.753906 -64.097656 2.988281 -65.132812 2.40625 -66.40625 C 1.820312 -67.6875 1.53125 -68.941406 1.53125 -70.171875 Z M 1.53125 -70.171875 "/></g></g></g><g fill="#720606" fill-opacity="1"><g transform="translate(292.77094, 252.667039)"><g><path d="M 33.015625 -57.5 C 37.390625 -57.5 41.488281 -56.769531 45.3125 -55.3125 C 49.132812 -53.851562 52.46875 -51.8125 55.3125 -49.1875 C 58.15625 -46.5625 60.394531 -43.425781 62.03125 -39.78125 C 63.675781 -36.144531 64.5 -32.140625 64.5 -27.765625 C 64.5 -23.242188 63.660156 -19.160156 61.984375 -15.515625 C 60.304688 -11.878906 58.023438 -8.765625 55.140625 -6.171875 C 52.265625 -3.585938 48.914062 -1.601562 45.09375 -0.21875 C 41.269531 1.164062 37.207031 1.859375 32.90625 1.859375 C 28.675781 1.859375 24.664062 1.113281 20.875 -0.375 C 17.082031 -1.875 13.765625 -3.9375 10.921875 -6.5625 C 8.085938 -9.1875 5.847656 -12.316406 4.203125 -15.953125 C 2.566406 -19.597656 1.75 -23.535156 1.75 -27.765625 C 1.75 -32.210938 2.585938 -36.253906 4.265625 -39.890625 C 5.941406 -43.535156 8.195312 -46.671875 11.03125 -49.296875 C 13.875 -51.921875 17.191406 -53.941406 20.984375 -55.359375 C 24.773438 -56.785156 28.785156 -57.5 33.015625 -57.5 Z M 33.234375 -14.421875 C 35.929688 -14.421875 38.148438 -15.128906 39.890625 -16.546875 C 41.640625 -17.972656 43.023438 -19.890625 44.046875 -22.296875 C 44.628906 -24.484375 44.921875 -26.34375 44.921875 -27.875 C 44.921875 -29.40625 44.628906 -31.265625 44.046875 -33.453125 C 42.953125 -35.859375 41.566406 -37.734375 39.890625 -39.078125 C 38.222656 -40.421875 35.96875 -41.09375 33.125 -41.09375 C 32.03125 -41.09375 30.5 -40.804688 28.53125 -40.234375 C 25.976562 -38.992188 24.15625 -37.296875 23.0625 -35.140625 C 21.96875 -32.992188 21.421875 -30.570312 21.421875 -27.875 C 21.421875 -26.125 21.691406 -24.445312 22.234375 -22.84375 C 22.785156 -21.238281 23.570312 -19.796875 24.59375 -18.515625 C 25.613281 -17.242188 26.851562 -16.242188 28.3125 -15.515625 C 29.769531 -14.785156 31.410156 -14.421875 33.234375 -14.421875 Z M 33.234375 -14.421875 "/></g></g></g><g fill="#720606" fill-opacity="1"><g transform="translate(359.5609, 252.667039)"><g><path d="M 3.5 0 L 3.5 -55.640625 L 19.234375 -55.640625 L 20.21875 -48.75 C 22.40625 -51.445312 25.082031 -53.578125 28.25 -55.140625 C 31.425781 -56.710938 34.4375 -57.5 37.28125 -57.5 C 41.71875 -57.5 45.519531 -56.84375 48.6875 -55.53125 C 51.863281 -54.21875 54.472656 -52.359375 56.515625 -49.953125 C 58.554688 -47.546875 60.050781 -44.628906 61 -41.203125 C 61.945312 -37.785156 62.421875 -33.960938 62.421875 -29.734375 L 62.421875 0 L 42.734375 0 L 42.734375 -29.296875 C 42.734375 -30.753906 42.625 -32.191406 42.40625 -33.609375 C 42.1875 -35.035156 41.785156 -36.296875 41.203125 -37.390625 C 40.628906 -38.484375 39.773438 -39.375 38.640625 -40.0625 C 37.515625 -40.75 36.078125 -41.09375 34.328125 -41.09375 C 32.359375 -41.09375 30.660156 -40.726562 29.234375 -40 C 27.816406 -39.28125 26.648438 -38.28125 25.734375 -37 C 24.828125 -35.726562 24.15625 -34.269531 23.71875 -32.625 C 23.28125 -30.988281 23.0625 -29.257812 23.0625 -27.4375 L 23.0625 0 Z M 3.5 0 "/></g></g></g><g fill="#720606" fill-opacity="1"><g transform="translate(79.939454, 344.917035)"><g><path d="M 26.890625 -72.578125 L 26.890625 -40.125 L 51.046875 -72.578125 L 74.328125 -72.578125 L 49.296875 -40.234375 L 75.203125 0 L 51.484375 0 L 36.1875 -25.796875 L 26.890625 -13.671875 L 26.890625 0 L 6.78125 0 L 6.78125 -72.578125 Z M 26.890625 -72.578125 "/></g></g></g><g fill="#720606" fill-opacity="1"><g transform="translate(156.130288, 344.917035)"><g><path d="M 3.5 0 L 3.5 -55.640625 L 19.234375 -55.640625 L 20.21875 -48.75 C 22.40625 -51.445312 25.082031 -53.578125 28.25 -55.140625 C 31.425781 -56.710938 34.4375 -57.5 37.28125 -57.5 C 41.71875 -57.5 45.519531 -56.84375 48.6875 -55.53125 C 51.863281 -54.21875 54.472656 -52.359375 56.515625 -49.953125 C 58.554688 -47.546875 60.050781 -44.628906 61 -41.203125 C 61.945312 -37.785156 62.421875 -33.960938 62.421875 -29.734375 L 62.421875 0 L 42.734375 0 L 42.734375 -29.296875 C 42.734375 -30.753906 42.625 -32.191406 42.40625 -33.609375 C 42.1875 -35.035156 41.785156 -36.296875 41.203125 -37.390625 C 40.628906 -38.484375 39.773438 -39.375 38.640625 -40.0625 C 37.515625 -40.75 36.078125 -41.09375 34.328125 -41.09375 C 32.359375 -41.09375 30.660156 -40.726562 29.234375 -40 C 27.816406 -39.28125 26.648438 -38.28125 25.734375 -37 C 24.828125 -35.726562 24.15625 -34.269531 23.71875 -32.625 C 23.28125 -30.988281 23.0625 -29.257812 23.0625 -27.4375 L 23.0625 0 Z M 3.5 0 "/></g></g></g><g fill="#720606" fill-opacity="1"><g transform="translate(222.155061, 344.917035)"><g><path d="M 33.015625 -57.5 C 37.390625 -57.5 41.488281 -56.769531 45.3125 -55.3125 C 49.132812 -53.851562 52.46875 -51.8125 55.3125 -49.1875 C 58.15625 -46.5625 60.394531 -43.425781 62.03125 -39.78125 C 63.675781 -36.144531 64.5 -32.140625 64.5 -27.765625 C 64.5 -23.242188 63.660156 -19.160156 61.984375 -15.515625 C 60.304688 -11.878906 58.023438 -8.765625 55.140625 -6.171875 C 52.265625 -3.585938 48.914062 -1.601562 45.09375 -0.21875 C 41.269531 1.164062 37.207031 1.859375 32.90625 1.859375 C 28.675781 1.859375 24.664062 1.113281 20.875 -0.375 C 17.082031 -1.875 13.765625 -3.9375 10.921875 -6.5625 C 8.085938 -9.1875 5.847656 -12.316406 4.203125 -15.953125 C 2.566406 -19.597656 1.75 -23.535156 1.75 -27.765625 C 1.75 -32.210938 2.585938 -36.253906 4.265625 -39.890625 C 5.941406 -43.535156 8.195312 -46.671875 11.03125 -49.296875 C 13.875 -51.921875 17.191406 -53.941406 20.984375 -55.359375 C 24.773438 -56.785156 28.785156 -57.5 33.015625 -57.5 Z M 33.234375 -14.421875 C 35.929688 -14.421875 38.148438 -15.128906 39.890625 -16.546875 C 41.640625 -17.972656 43.023438 -19.890625 44.046875 -22.296875 C 44.628906 -24.484375 44.921875 -26.34375 44.921875 -27.875 C 44.921875 -29.40625 44.628906 -31.265625 44.046875 -33.453125 C 42.953125 -35.859375 41.566406 -37.734375 39.890625 -39.078125 C 38.222656 -40.421875 35.96875 -41.09375 33.125 -41.09375 C 32.03125 -41.09375 30.5 -40.804688 28.53125 -40.234375 C 25.976562 -38.992188 24.15625 -37.296875 23.0625 -35.140625 C 21.96875 -32.992188 21.421875 -30.570312 21.421875 -27.875 C 21.421875 -26.125 21.691406 -24.445312 22.234375 -22.84375 C 22.785156 -21.238281 23.570312 -19.796875 24.59375 -18.515625 C 25.613281 -17.242188 26.851562 -16.242188 28.3125 -15.515625 C 29.769531 -14.785156 31.410156 -14.421875 33.234375 -14.421875 Z M 33.234375 -14.421875 "/></g></g></g><g fill="#720606" fill-opacity="1"><g transform="translate(288.945021, 344.917035)"><g><path d="M -3.28125 -55.640625 L 17.8125 -55.640625 L 26.671875 -25.578125 L 26.78125 -25.578125 L 35.203125 -55.53125 L 49.1875 -55.53125 L 57.5 -25.578125 L 57.71875 -25.578125 L 66.578125 -55.640625 L 87.671875 -55.640625 L 68.421875 0 L 50.9375 0 L 42.078125 -26.234375 L 33.34375 0 L 15.84375 0 Z M -3.28125 -55.640625 "/></g></g></g><g fill="#720606" fill-opacity="1"><g transform="translate(374.646044, 344.917035)"><g><path d="M 4.265625 0 L 4.265625 -75.203125 L 23.828125 -75.203125 L 23.828125 0 Z M 4.265625 0 "/></g></g></g><g fill="#720606" fill-opacity="1"><g transform="translate(402.083481, 344.917035)"><g><path d="M 2.296875 -27.765625 C 2.296875 -32.140625 3.132812 -36.144531 4.8125 -39.78125 C 6.488281 -43.425781 8.742188 -46.5625 11.578125 -49.1875 C 14.421875 -51.8125 17.738281 -53.851562 21.53125 -55.3125 C 25.320312 -56.769531 29.332031 -57.5 33.5625 -57.5 C 37.9375 -57.5 42.035156 -56.785156 45.859375 -55.359375 C 49.679688 -53.941406 53.015625 -51.9375 55.859375 -49.34375 C 58.703125 -46.757812 60.941406 -43.644531 62.578125 -40 C 64.222656 -36.363281 65.046875 -32.285156 65.046875 -27.765625 C 65.046875 -26.890625 64.988281 -26.03125 64.875 -25.1875 C 64.769531 -24.351562 64.644531 -23.5 64.5 -22.625 L 21.96875 -22.625 C 22.769531 -20.144531 23.972656 -18.03125 25.578125 -16.28125 C 27.179688 -14.539062 29.332031 -13.671875 32.03125 -13.671875 C 33.851562 -13.671875 35.75 -14.066406 37.71875 -14.859375 C 39.6875 -15.660156 41.175781 -16.789062 42.1875 -18.25 L 62.421875 -15.40625 C 61.472656 -12.132812 60.050781 -9.40625 58.15625 -7.21875 C 56.257812 -5.03125 54.015625 -3.257812 51.421875 -1.90625 C 48.835938 -0.5625 46.015625 0.398438 42.953125 0.984375 C 39.898438 1.566406 36.769531 1.859375 33.5625 1.859375 C 29.332031 1.859375 25.320312 1.128906 21.53125 -0.328125 C 17.738281 -1.785156 14.421875 -3.804688 11.578125 -6.390625 C 8.742188 -8.984375 6.488281 -12.097656 4.8125 -15.734375 C 3.132812 -19.378906 2.296875 -23.390625 2.296875 -27.765625 Z M 22.625 -35.75 L 43.9375 -35.75 C 41.976562 -40.1875 38.554688 -42.40625 33.671875 -42.40625 C 31.117188 -42.40625 28.910156 -41.878906 27.046875 -40.828125 C 25.191406 -39.773438 23.71875 -38.082031 22.625 -35.75 Z M 22.625 -35.75 "/></g></g></g><g fill="#720606" fill-opacity="1"><g transform="translate(469.201383, 344.917035)"><g><path d="M 2.078125 -27.765625 C 2.078125 -32.210938 2.804688 -36.253906 4.265625 -39.890625 C 5.722656 -43.535156 7.757812 -46.671875 10.375 -49.296875 C 13 -51.921875 16.113281 -53.960938 19.71875 -55.421875 C 23.332031 -56.878906 27.289062 -57.609375 31.59375 -57.609375 C 34.144531 -57.609375 36.472656 -57.332031 38.578125 -56.78125 C 40.691406 -56.238281 42.878906 -55.347656 45.140625 -54.109375 L 45.140625 -75.203125 L 64.71875 -75.203125 L 64.71875 0 L 48.09375 0 L 47.4375 -3.28125 C 45.101562 -1.601562 42.695312 -0.3125 40.21875 0.59375 C 37.75 1.507812 34.984375 1.96875 31.921875 1.96875 C 27.546875 1.96875 23.535156 1.222656 19.890625 -0.265625 C 16.242188 -1.765625 13.09375 -3.84375 10.4375 -6.5 C 7.78125 -9.164062 5.722656 -12.316406 4.265625 -15.953125 C 2.804688 -19.597656 2.078125 -23.535156 2.078125 -27.765625 Z M 21.640625 -27.875 C 21.640625 -26.050781 21.929688 -24.335938 22.515625 -22.734375 C 23.097656 -21.128906 23.914062 -19.707031 24.96875 -18.46875 C 26.03125 -17.226562 27.328125 -16.242188 28.859375 -15.515625 C 30.390625 -14.785156 32.066406 -14.421875 33.890625 -14.421875 C 35.785156 -14.421875 37.476562 -14.785156 38.96875 -15.515625 C 40.457031 -16.242188 41.726562 -17.207031 42.78125 -18.40625 C 43.84375 -19.613281 44.664062 -21.035156 45.25 -22.671875 C 45.832031 -24.316406 46.125 -26.050781 46.125 -27.875 C 46.125 -30.644531 45.519531 -33.101562 44.3125 -35.25 C 43.113281 -37.40625 41.242188 -39.066406 38.703125 -40.234375 C 36.585938 -40.804688 34.945312 -41.09375 33.78125 -41.09375 C 31.8125 -41.09375 30.078125 -40.75 28.578125 -40.0625 C 27.085938 -39.375 25.832031 -38.425781 24.8125 -37.21875 C 23.789062 -36.019531 23.003906 -34.617188 22.453125 -33.015625 C 21.910156 -31.410156 21.640625 -29.695312 21.640625 -27.875 Z M 21.640625 -27.875 "/></g></g></g><g fill="#720606" fill-opacity="1"><g transform="translate(537.958948, 344.917035)"><g><path d="M 32.796875 -57.5 C 35.710938 -57.5 38.550781 -56.769531 41.3125 -55.3125 C 44.082031 -53.851562 46.632812 -52.25 48.96875 -50.5 L 49.84375 -57.28125 L 65.59375 -57.28125 L 65.59375 -3.5 C 65.59375 1.019531 64.828125 5.023438 63.296875 8.515625 C 61.765625 12.015625 59.648438 14.96875 56.953125 17.375 C 54.253906 19.78125 51.0625 21.601562 47.375 22.84375 C 43.695312 24.082031 39.675781 24.703125 35.3125 24.703125 C 31.738281 24.703125 28.289062 24.300781 24.96875 23.5 C 21.65625 22.695312 18.6875 21.398438 16.0625 19.609375 C 13.445312 17.828125 11.316406 15.535156 9.671875 12.734375 C 8.035156 9.929688 7.144531 6.523438 7 2.515625 L 25.578125 2.40625 C 26.378906 4.8125 27.582031 6.503906 29.1875 7.484375 C 30.789062 8.472656 32.832031 8.96875 35.3125 8.96875 C 39.3125 8.96875 42.148438 7.742188 43.828125 5.296875 C 45.503906 2.859375 46.34375 -0.179688 46.34375 -3.828125 C 41.613281 -0.835938 36.476562 0.65625 30.9375 0.65625 C 26.851562 0.65625 23.078125 -0.0507812 19.609375 -1.46875 C 16.148438 -2.894531 13.179688 -4.882812 10.703125 -7.4375 C 8.234375 -9.988281 6.304688 -12.992188 4.921875 -16.453125 C 3.535156 -19.910156 2.84375 -23.679688 2.84375 -27.765625 C 2.84375 -32.140625 3.585938 -36.144531 5.078125 -39.78125 C 6.578125 -43.425781 8.632812 -46.5625 11.25 -49.1875 C 13.875 -51.8125 17.023438 -53.851562 20.703125 -55.3125 C 24.390625 -56.769531 28.421875 -57.5 32.796875 -57.5 Z M 22.515625 -27.875 C 22.515625 -26.125 22.804688 -24.425781 23.390625 -22.78125 C 23.972656 -21.144531 24.8125 -19.707031 25.90625 -18.46875 C 27 -17.226562 28.289062 -16.242188 29.78125 -15.515625 C 31.28125 -14.785156 32.941406 -14.421875 34.765625 -14.421875 C 36.660156 -14.421875 38.351562 -14.785156 39.84375 -15.515625 C 41.332031 -16.242188 42.601562 -17.207031 43.65625 -18.40625 C 44.71875 -19.613281 45.539062 -21.035156 46.125 -22.671875 C 46.707031 -24.316406 47 -26.050781 47 -27.875 C 47 -31.738281 45.796875 -34.984375 43.390625 -37.609375 C 42.078125 -38.847656 40.75 -39.738281 39.40625 -40.28125 C 38.0625 -40.820312 36.476562 -41.09375 34.65625 -41.09375 C 32.6875 -41.09375 30.953125 -40.75 29.453125 -40.0625 C 27.960938 -39.375 26.707031 -38.425781 25.6875 -37.21875 C 24.664062 -36.019531 23.878906 -34.617188 23.328125 -33.015625 C 22.785156 -31.410156 22.515625 -29.695312 22.515625 -27.875 Z M 22.515625 -27.875 "/></g></g></g><g fill="#720606" fill-opacity="1"><g transform="translate(606.716513, 344.917035)"><g><path d="M 2.296875 -27.765625 C 2.296875 -32.140625 3.132812 -36.144531 4.8125 -39.78125 C 6.488281 -43.425781 8.742188 -46.5625 11.578125 -49.1875 C 14.421875 -51.8125 17.738281 -53.851562 21.53125 -55.3125 C 25.320312 -56.769531 29.332031 -57.5 33.5625 -57.5 C 37.9375 -57.5 42.035156 -56.785156 45.859375 -55.359375 C 49.679688 -53.941406 53.015625 -51.9375 55.859375 -49.34375 C 58.703125 -46.757812 60.941406 -43.644531 62.578125 -40 C 64.222656 -36.363281 65.046875 -32.285156 65.046875 -27.765625 C 65.046875 -26.890625 64.988281 -26.03125 64.875 -25.1875 C 64.769531 -24.351562 64.644531 -23.5 64.5 -22.625 L 21.96875 -22.625 C 22.769531 -20.144531 23.972656 -18.03125 25.578125 -16.28125 C 27.179688 -14.539062 29.332031 -13.671875 32.03125 -13.671875 C 33.851562 -13.671875 35.75 -14.066406 37.71875 -14.859375 C 39.6875 -15.660156 41.175781 -16.789062 42.1875 -18.25 L 62.421875 -15.40625 C 61.472656 -12.132812 60.050781 -9.40625 58.15625 -7.21875 C 56.257812 -5.03125 54.015625 -3.257812 51.421875 -1.90625 C 48.835938 -0.5625 46.015625 0.398438 42.953125 0.984375 C 39.898438 1.566406 36.769531 1.859375 33.5625 1.859375 C 29.332031 1.859375 25.320312 1.128906 21.53125 -0.328125 C 17.738281 -1.785156 14.421875 -3.804688 11.578125 -6.390625 C 8.742188 -8.984375 6.488281 -12.097656 4.8125 -15.734375 C 3.132812 -19.378906 2.296875 -23.390625 2.296875 -27.765625 Z M 22.625 -35.75 L 43.9375 -35.75 C 41.976562 -40.1875 38.554688 -42.40625 33.671875 -42.40625 C 31.117188 -42.40625 28.910156 -41.878906 27.046875 -40.828125 C 25.191406 -39.773438 23.71875 -38.082031 22.625 -35.75 Z M 22.625 -35.75 "/></g></g></g><g fill="#720606" fill-opacity="1"><g transform="translate(79.939454, 437.16703)"><g><path d="M 59.25 -72.578125 L 59.25 -55.859375 L 26.890625 -55.859375 L 26.890625 -41.3125 L 54.4375 -41.3125 L 54.4375 -24.59375 L 26.890625 -24.59375 L 26.890625 0 L 6.78125 0 L 6.78125 -72.578125 Z M 59.25 -72.578125 "/></g></g></g><g fill="#720606" fill-opacity="1"><g transform="translate(142.684843, 437.16703)"><g><path d="M 3.171875 0 L 3.171875 -55.640625 L 18.90625 -55.640625 L 20.109375 -48.09375 C 20.765625 -49.695312 21.65625 -51.023438 22.78125 -52.078125 C 23.914062 -53.140625 25.175781 -54 26.5625 -54.65625 C 27.945312 -55.3125 29.441406 -55.765625 31.046875 -56.015625 C 32.648438 -56.273438 34.21875 -56.40625 35.75 -56.40625 C 37.0625 -56.40625 38.316406 -56.332031 39.515625 -56.1875 C 40.710938 -56.039062 41.820312 -55.859375 42.84375 -55.640625 L 42.84375 -39.140625 L 35.421875 -39.03125 C 30.828125 -38.957031 27.5625 -37.753906 25.625 -35.421875 C 23.695312 -33.085938 22.734375 -29.734375 22.734375 -25.359375 L 22.734375 0 Z M 3.171875 0 "/></g></g></g><g fill="#720606" fill-opacity="1"><g transform="translate(189.361296, 437.16703)"><g><path d="M 2.84375 -55.640625 L 22.625 -55.640625 L 22.625 0 L 2.84375 0 Z M 1.53125 -70.171875 C 1.53125 -71.773438 1.835938 -73.175781 2.453125 -74.375 C 3.078125 -75.582031 3.914062 -76.601562 4.96875 -77.4375 C 6.03125 -78.28125 7.253906 -78.898438 8.640625 -79.296875 C 10.023438 -79.703125 11.445312 -79.90625 12.90625 -79.90625 C 14.351562 -79.90625 15.769531 -79.703125 17.15625 -79.296875 C 18.539062 -78.898438 19.757812 -78.28125 20.8125 -77.4375 C 21.875 -76.601562 22.710938 -75.582031 23.328125 -74.375 C 23.953125 -73.175781 24.265625 -71.773438 24.265625 -70.171875 C 24.265625 -68.578125 23.9375 -67.160156 23.28125 -65.921875 C 22.625 -64.679688 21.765625 -63.640625 20.703125 -62.796875 C 19.648438 -61.960938 18.429688 -61.34375 17.046875 -60.9375 C 15.660156 -60.539062 14.242188 -60.34375 12.796875 -60.34375 C 11.335938 -60.34375 9.878906 -60.578125 8.421875 -61.046875 C 6.960938 -61.523438 5.722656 -62.273438 4.703125 -63.296875 C 3.753906 -64.097656 2.988281 -65.132812 2.40625 -66.40625 C 1.820312 -67.6875 1.53125 -68.941406 1.53125 -70.171875 Z M 1.53125 -70.171875 "/></g></g></g><g fill="#720606" fill-opacity="1"><g transform="translate(216.142861, 437.16703)"><g><path d="M 2.296875 -27.765625 C 2.296875 -32.140625 3.132812 -36.144531 4.8125 -39.78125 C 6.488281 -43.425781 8.742188 -46.5625 11.578125 -49.1875 C 14.421875 -51.8125 17.738281 -53.851562 21.53125 -55.3125 C 25.320312 -56.769531 29.332031 -57.5 33.5625 -57.5 C 37.9375 -57.5 42.035156 -56.785156 45.859375 -55.359375 C 49.679688 -53.941406 53.015625 -51.9375 55.859375 -49.34375 C 58.703125 -46.757812 60.941406 -43.644531 62.578125 -40 C 64.222656 -36.363281 65.046875 -32.285156 65.046875 -27.765625 C 65.046875 -26.890625 64.988281 -26.03125 64.875 -25.1875 C 64.769531 -24.351562 64.644531 -23.5 64.5 -22.625 L 21.96875 -22.625 C 22.769531 -20.144531 23.972656 -18.03125 25.578125 -16.28125 C 27.179688 -14.539062 29.332031 -13.671875 32.03125 -13.671875 C 33.851562 -13.671875 35.75 -14.066406 37.71875 -14.859375 C 39.6875 -15.660156 41.175781 -16.789062 42.1875 -18.25 L 62.421875 -15.40625 C 61.472656 -12.132812 60.050781 -9.40625 58.15625 -7.21875 C 56.257812 -5.03125 54.015625 -3.257812 51.421875 -1.90625 C 48.835938 -0.5625 46.015625 0.398438 42.953125 0.984375 C 39.898438 1.566406 36.769531 1.859375 33.5625 1.859375 C 29.332031 1.859375 25.320312 1.128906 21.53125 -0.328125 C 17.738281 -1.785156 14.421875 -3.804688 11.578125 -6.390625 C 8.742188 -8.984375 6.488281 -12.097656 4.8125 -15.734375 C 3.132812 -19.378906 2.296875 -23.390625 2.296875 -27.765625 Z M 22.625 -35.75 L 43.9375 -35.75 C 41.976562 -40.1875 38.554688 -42.40625 33.671875 -42.40625 C 31.117188 -42.40625 28.910156 -41.878906 27.046875 -40.828125 C 25.191406 -39.773438 23.71875 -38.082031 22.625 -35.75 Z M 22.625 -35.75 "/></g></g></g><g fill="#720606" fill-opacity="1"><g transform="translate(283.260763, 437.16703)"><g><path d="M 3.5 0 L 3.5 -55.640625 L 19.234375 -55.640625 L 20.21875 -48.75 C 22.40625 -51.445312 25.082031 -53.578125 28.25 -55.140625 C 31.425781 -56.710938 34.4375 -57.5 37.28125 -57.5 C 41.71875 -57.5 45.519531 -56.84375 48.6875 -55.53125 C 51.863281 -54.21875 54.472656 -52.359375 56.515625 -49.953125 C 58.554688 -47.546875 60.050781 -44.628906 61 -41.203125 C 61.945312 -37.785156 62.421875 -33.960938 62.421875 -29.734375 L 62.421875 0 L 42.734375 0 L 42.734375 -29.296875 C 42.734375 -30.753906 42.625 -32.191406 42.40625 -33.609375 C 42.1875 -35.035156 41.785156 -36.296875 41.203125 -37.390625 C 40.628906 -38.484375 39.773438 -39.375 38.640625 -40.0625 C 37.515625 -40.75 36.078125 -41.09375 34.328125 -41.09375 C 32.359375 -41.09375 30.660156 -40.726562 29.234375 -40 C 27.816406 -39.28125 26.648438 -38.28125 25.734375 -37 C 24.828125 -35.726562 24.15625 -34.269531 23.71875 -32.625 C 23.28125 -30.988281 23.0625 -29.257812 23.0625 -27.4375 L 23.0625 0 Z M 3.5 0 "/></g></g></g><g fill="#720606" fill-opacity="1"><g transform="translate(349.285525, 437.16703)"><g><path d="M 2.078125 -27.765625 C 2.078125 -32.210938 2.804688 -36.253906 4.265625 -39.890625 C 5.722656 -43.535156 7.757812 -46.671875 10.375 -49.296875 C 13 -51.921875 16.113281 -53.960938 19.71875 -55.421875 C 23.332031 -56.878906 27.289062 -57.609375 31.59375 -57.609375 C 34.144531 -57.609375 36.472656 -57.332031 38.578125 -56.78125 C 40.691406 -56.238281 42.878906 -55.347656 45.140625 -54.109375 L 45.140625 -75.203125 L 64.71875 -75.203125 L 64.71875 0 L 48.09375 0 L 47.4375 -3.28125 C 45.101562 -1.601562 42.695312 -0.3125 40.21875 0.59375 C 37.75 1.507812 34.984375 1.96875 31.921875 1.96875 C 27.546875 1.96875 23.535156 1.222656 19.890625 -0.265625 C 16.242188 -1.765625 13.09375 -3.84375 10.4375 -6.5 C 7.78125 -9.164062 5.722656 -12.316406 4.265625 -15.953125 C 2.804688 -19.597656 2.078125 -23.535156 2.078125 -27.765625 Z M 21.640625 -27.875 C 21.640625 -26.050781 21.929688 -24.335938 22.515625 -22.734375 C 23.097656 -21.128906 23.914062 -19.707031 24.96875 -18.46875 C 26.03125 -17.226562 27.328125 -16.242188 28.859375 -15.515625 C 30.390625 -14.785156 32.066406 -14.421875 33.890625 -14.421875 C 35.785156 -14.421875 37.476562 -14.785156 38.96875 -15.515625 C 40.457031 -16.242188 41.726562 -17.207031 42.78125 -18.40625 C 43.84375 -19.613281 44.664062 -21.035156 45.25 -22.671875 C 45.832031 -24.316406 46.125 -26.050781 46.125 -27.875 C 46.125 -30.644531 45.519531 -33.101562 44.3125 -35.25 C 43.113281 -37.40625 41.242188 -39.066406 38.703125 -40.234375 C 36.585938 -40.804688 34.945312 -41.09375 33.78125 -41.09375 C 31.8125 -41.09375 30.078125 -40.75 28.578125 -40.0625 C 27.085938 -39.375 25.832031 -38.425781 24.8125 -37.21875 C 23.789062 -36.019531 23.003906 -34.617188 22.453125 -33.015625 C 21.910156 -31.410156 21.640625 -29.695312 21.640625 -27.875 Z M 21.640625 -27.875 "/></g></g></g><g fill="#720606" fill-opacity="1"><g transform="translate(418.04309, 437.16703)"><g><path d="M 1.53125 -17.921875 L 20.765625 -17.8125 C 21.054688 -16.207031 21.835938 -15.113281 23.109375 -14.53125 C 24.390625 -13.957031 25.757812 -13.671875 27.21875 -13.671875 C 27.726562 -13.671875 28.328125 -13.6875 29.015625 -13.71875 C 29.710938 -13.75 30.367188 -13.875 30.984375 -14.09375 C 31.609375 -14.3125 32.140625 -14.617188 32.578125 -15.015625 C 33.015625 -15.421875 33.234375 -15.988281 33.234375 -16.71875 C 33.234375 -17.8125 32.503906 -18.613281 31.046875 -19.125 C 29.585938 -19.632812 27.742188 -20.109375 25.515625 -20.546875 C 23.296875 -20.984375 20.910156 -21.492188 18.359375 -22.078125 C 15.804688 -22.660156 13.421875 -23.585938 11.203125 -24.859375 C 8.984375 -26.140625 7.144531 -27.875 5.6875 -30.0625 C 4.226562 -32.25 3.5 -35.164062 3.5 -38.8125 C 3.5 -42.664062 4.242188 -45.796875 5.734375 -48.203125 C 7.234375 -50.609375 9.203125 -52.503906 11.640625 -53.890625 C 14.078125 -55.273438 16.84375 -56.222656 19.9375 -56.734375 C 23.039062 -57.242188 26.195312 -57.5 29.40625 -57.5 C 32.46875 -57.5 35.378906 -57.132812 38.140625 -56.40625 C 40.910156 -55.675781 43.351562 -54.523438 45.46875 -52.953125 C 47.582031 -51.390625 49.257812 -49.40625 50.5 -47 C 51.738281 -44.59375 52.359375 -41.679688 52.359375 -38.265625 L 32.578125 -38.375 C 32.429688 -39.6875 31.9375 -40.628906 31.09375 -41.203125 C 30.257812 -41.785156 29.222656 -42.078125 27.984375 -42.078125 C 27.617188 -42.078125 27.144531 -42.039062 26.5625 -41.96875 C 25.976562 -41.894531 25.429688 -41.75 24.921875 -41.53125 C 24.410156 -41.3125 23.972656 -41.039062 23.609375 -40.71875 C 23.242188 -40.394531 23.0625 -39.976562 23.0625 -39.46875 C 23.0625 -38.300781 23.828125 -37.460938 25.359375 -36.953125 C 26.890625 -36.441406 28.785156 -35.984375 31.046875 -35.578125 C 33.304688 -35.179688 35.765625 -34.726562 38.421875 -34.21875 C 41.078125 -33.707031 43.535156 -32.847656 45.796875 -31.640625 C 48.054688 -30.441406 49.953125 -28.785156 51.484375 -26.671875 C 53.015625 -24.554688 53.78125 -21.710938 53.78125 -18.140625 C 53.78125 -14.285156 52.976562 -11.0625 51.375 -8.46875 C 49.769531 -5.882812 47.65625 -3.828125 45.03125 -2.296875 C 42.40625 -0.765625 39.472656 0.328125 36.234375 0.984375 C 32.992188 1.640625 29.734375 1.96875 26.453125 1.96875 C 23.390625 1.96875 20.363281 1.582031 17.375 0.8125 C 14.394531 0.0507812 11.71875 -1.128906 9.34375 -2.734375 C 6.976562 -4.335938 5.082031 -6.394531 3.65625 -8.90625 C 2.238281 -11.425781 1.53125 -14.429688 1.53125 -17.921875 Z M 1.53125 -17.921875 "/></g></g></g><g fill="#720606" fill-opacity="1"><g transform="translate(474.229732, 437.16703)"><g><path d="M 3.28125 0 L 3.28125 -75.203125 L 22.734375 -75.203125 L 22.625 -53.125 C 24.8125 -54.363281 27.125 -55.398438 29.5625 -56.234375 C 32.007812 -57.078125 34.507812 -57.5 37.0625 -57.5 C 41.644531 -57.5 45.539062 -56.820312 48.75 -55.46875 C 51.957031 -54.125 54.5625 -52.226562 56.5625 -49.78125 C 58.570312 -47.34375 60.015625 -44.429688 60.890625 -41.046875 C 61.765625 -37.660156 62.203125 -33.890625 62.203125 -29.734375 L 62.203125 0 L 42.515625 0 L 42.515625 -29.40625 C 42.515625 -31.007812 42.367188 -32.6875 42.078125 -34.4375 C 41.785156 -36.1875 41.097656 -37.679688 40.015625 -38.921875 C 39.066406 -39.867188 37.972656 -40.46875 36.734375 -40.71875 C 35.492188 -40.96875 34.253906 -41.09375 33.015625 -41.09375 C 31.265625 -41.09375 29.75 -40.75 28.46875 -40.0625 C 27.195312 -39.375 26.140625 -38.445312 25.296875 -37.28125 C 24.460938 -36.113281 23.84375 -34.800781 23.4375 -33.34375 C 23.039062 -31.882812 22.84375 -30.390625 22.84375 -28.859375 L 22.84375 0 Z M 3.28125 0 "/></g></g></g><g fill="#720606" fill-opacity="1"><g transform="translate(540.035866, 437.16703)"><g><path d="M 2.84375 -55.640625 L 22.625 -55.640625 L 22.625 0 L 2.84375 0 Z M 1.53125 -70.171875 C 1.53125 -71.773438 1.835938 -73.175781 2.453125 -74.375 C 3.078125 -75.582031 3.914062 -76.601562 4.96875 -77.4375 C 6.03125 -78.28125 7.253906 -78.898438 8.640625 -79.296875 C 10.023438 -79.703125 11.445312 -79.90625 12.90625 -79.90625 C 14.351562 -79.90625 15.769531 -79.703125 17.15625 -79.296875 C 18.539062 -78.898438 19.757812 -78.28125 20.8125 -77.4375 C 21.875 -76.601562 22.710938 -75.582031 23.328125 -74.375 C 23.953125 -73.175781 24.265625 -71.773438 24.265625 -70.171875 C 24.265625 -68.578125 23.9375 -67.160156 23.28125 -65.921875 C 22.625 -64.679688 21.765625 -63.640625 20.703125 -62.796875 C 19.648438 -61.960938 18.429688 -61.34375 17.046875 -60.9375 C 15.660156 -60.539062 14.242188 -60.34375 12.796875 -60.34375 C 11.335938 -60.34375 9.878906 -60.578125 8.421875 -61.046875 C 6.960938 -61.523438 5.722656 -62.273438 4.703125 -63.296875 C 3.753906 -64.097656 2.988281 -65.132812 2.40625 -66.40625 C 1.820312 -67.6875 1.53125 -68.941406 1.53125 -70.171875 Z M 1.53125 -70.171875 "/></g></g></g><g fill="#720606" fill-opacity="1"><g transform="translate(566.817419, 437.16703)"><g><path d="M 4.265625 -55.640625 L 20 -55.640625 L 20.984375 -48.3125 C 22.953125 -50.863281 25.359375 -53.03125 28.203125 -54.8125 C 31.046875 -56.601562 34 -57.5 37.0625 -57.5 C 41.425781 -57.5 45.445312 -56.785156 49.125 -55.359375 C 52.8125 -53.941406 55.96875 -51.921875 58.59375 -49.296875 C 61.21875 -46.671875 63.273438 -43.535156 64.765625 -39.890625 C 66.265625 -36.253906 67.015625 -32.25 67.015625 -27.875 C 67.015625 -23.5 66.300781 -19.488281 64.875 -15.84375 C 63.457031 -12.207031 61.4375 -9.078125 58.8125 -6.453125 C 56.1875 -3.828125 53.066406 -1.785156 49.453125 -0.328125 C 45.847656 1.128906 41.863281 1.859375 37.5 1.859375 C 34.945312 1.859375 32.554688 1.601562 30.328125 1.09375 C 28.109375 0.582031 25.941406 -0.328125 23.828125 -1.640625 L 23.828125 19.015625 L 4.265625 19.015625 Z M 35.203125 -14.53125 C 37.097656 -14.53125 38.804688 -14.875 40.328125 -15.5625 C 41.859375 -16.257812 43.132812 -17.207031 44.15625 -18.40625 C 45.175781 -19.613281 45.957031 -21.019531 46.5 -22.625 C 47.050781 -24.226562 47.328125 -25.941406 47.328125 -27.765625 C 47.328125 -29.585938 47.050781 -31.316406 46.5 -32.953125 C 45.957031 -34.597656 45.15625 -36.019531 44.09375 -37.21875 C 43.039062 -38.425781 41.769531 -39.390625 40.28125 -40.109375 C 38.789062 -40.835938 37.0625 -41.203125 35.09375 -41.203125 C 31.15625 -41.203125 28.144531 -39.890625 26.0625 -37.265625 C 23.988281 -34.648438 22.953125 -31.484375 22.953125 -27.765625 C 22.953125 -26.015625 23.242188 -24.335938 23.828125 -22.734375 C 24.410156 -21.128906 25.226562 -19.722656 26.28125 -18.515625 C 27.34375 -17.316406 28.640625 -16.351562 30.171875 -15.625 C 31.703125 -14.894531 33.378906 -14.53125 35.203125 -14.53125 Z M 35.203125 -14.53125 "/></g></g></g><g fill="#000000" fill-opacity="1"><g transform="translate(82.900147, 515.75663)"><g><path d="M 12.671875 -36.8125 L 22.203125 -36.8125 L 37.09375 0 L 26.296875 0 L 24.40625 -4.984375 L 10.46875 -4.984375 L 8.578125 0 L -2.15625 0 Z M 13.671875 -13.390625 L 21.203125 -13.390625 L 17.765625 -22.25 L 17.5 -23.578125 L 17.390625 -23.578125 L 17.109375 -22.25 Z M 13.671875 -13.390625 "/></g></g></g><g fill="#000000" fill-opacity="1"><g transform="translate(119.53652, 515.75663)"><g><path d="M 12.40625 -36.765625 L 22.75 -22.140625 L 33.328125 -36.765625 L 42.1875 -36.765625 L 42.1875 0 L 32.046875 0 L 32.046875 -20.59375 L 24.03125 -8.96875 L 21.53125 -8.96875 L 13.625 -20.703125 L 13.625 0 L 3.4375 0 L 3.4375 -36.765625 Z M 12.40625 -36.765625 "/></g></g></g><g fill="#000000" fill-opacity="1"><g transform="translate(165.138285, 515.75663)"><g><path d="M 11.953125 -11.6875 C 11.953125 -10.832031 12.144531 -10.132812 12.53125 -9.59375 C 12.925781 -9.0625 13.425781 -8.640625 14.03125 -8.328125 C 14.644531 -8.015625 15.3125 -7.800781 16.03125 -7.6875 C 16.75 -7.582031 17.457031 -7.53125 18.15625 -7.53125 C 18.707031 -7.53125 19.296875 -7.554688 19.921875 -7.609375 C 20.554688 -7.660156 21.140625 -7.78125 21.671875 -7.96875 C 22.203125 -8.15625 22.648438 -8.457031 23.015625 -8.875 C 23.390625 -9.300781 23.578125 -9.867188 23.578125 -10.578125 C 23.578125 -11.234375 23.429688 -11.785156 23.140625 -12.234375 C 22.847656 -12.679688 22.460938 -13.039062 21.984375 -13.3125 C 21.503906 -13.59375 20.984375 -13.816406 20.421875 -13.984375 C 19.867188 -14.148438 19.335938 -14.304688 18.828125 -14.453125 C 18.304688 -14.597656 17.734375 -14.742188 17.109375 -14.890625 C 16.484375 -15.035156 15.835938 -15.238281 15.171875 -15.5 C 14.578125 -15.71875 13.859375 -15.941406 13.015625 -16.171875 C 11.828125 -16.492188 10.648438 -16.894531 9.484375 -17.375 C 8.328125 -17.863281 7.285156 -18.472656 6.359375 -19.203125 C 5.441406 -19.941406 4.695312 -20.828125 4.125 -21.859375 C 3.550781 -22.898438 3.265625 -24.117188 3.265625 -25.515625 C 3.265625 -27.921875 3.6875 -29.894531 4.53125 -31.4375 C 5.382812 -32.988281 6.53125 -34.234375 7.96875 -35.171875 C 9.40625 -36.117188 11.066406 -36.773438 12.953125 -37.140625 C 14.835938 -37.515625 16.8125 -37.703125 18.875 -37.703125 C 20.90625 -37.703125 22.769531 -37.46875 24.46875 -37 C 26.164062 -36.539062 27.625 -35.820312 28.84375 -34.84375 C 30.0625 -33.863281 31.007812 -32.617188 31.6875 -31.109375 C 32.375 -29.597656 32.71875 -27.789062 32.71875 -25.6875 L 22.53125 -25.6875 C 22.53125 -26.09375 22.472656 -26.515625 22.359375 -26.953125 C 21.953125 -27.878906 21.253906 -28.523438 20.265625 -28.890625 C 19.234375 -29.078125 18.457031 -29.171875 17.9375 -29.171875 C 17.34375 -29.171875 16.722656 -29.125 16.078125 -29.03125 C 15.429688 -28.9375 14.851562 -28.726562 14.34375 -28.40625 C 13.75 -27.914062 13.453125 -27.304688 13.453125 -26.578125 C 13.453125 -26.128906 13.597656 -25.726562 13.890625 -25.375 C 14.191406 -25.03125 14.5625 -24.726562 15 -24.46875 C 15.445312 -24.207031 15.910156 -23.992188 16.390625 -23.828125 C 16.867188 -23.660156 17.289062 -23.539062 17.65625 -23.46875 C 18.507812 -23.207031 19.394531 -22.988281 20.3125 -22.8125 C 22.125 -22.363281 23.847656 -21.867188 25.484375 -21.328125 C 27.128906 -20.796875 28.570312 -20.078125 29.8125 -19.171875 C 31.050781 -18.273438 32.035156 -17.144531 32.765625 -15.78125 C 33.503906 -14.414062 33.875 -12.679688 33.875 -10.578125 C 33.875 -8.429688 33.382812 -6.617188 32.40625 -5.140625 C 31.4375 -3.671875 30.175781 -2.472656 28.625 -1.546875 C 27.070312 -0.628906 25.351562 0.0195312 23.46875 0.40625 C 21.59375 0.800781 19.75 1 17.9375 1 C 15.90625 1 13.921875 0.765625 11.984375 0.296875 C 10.046875 -0.160156 8.320312 -0.90625 6.8125 -1.9375 C 5.300781 -2.96875 4.09375 -4.285156 3.1875 -5.890625 C 2.28125 -7.492188 1.828125 -9.425781 1.828125 -11.6875 Z M 11.953125 -11.6875 "/></g></g></g><g fill="#000000" fill-opacity="1"><g transform="translate(201.276574, 515.75663)"><g><path d="M 12.671875 -36.8125 L 22.203125 -36.8125 L 37.09375 0 L 26.296875 0 L 24.40625 -4.984375 L 10.46875 -4.984375 L 8.578125 0 L -2.15625 0 Z M 13.671875 -13.390625 L 21.203125 -13.390625 L 17.765625 -22.25 L 17.5 -23.578125 L 17.390625 -23.578125 L 17.109375 -22.25 Z M 13.671875 -13.390625 "/></g></g></g><g fill="#000000" fill-opacity="1"><g transform="translate(237.912947, 515.75663)"><g><path d="M 3.328125 -9.25 L 3.328125 -17.265625 L 20.8125 -17.265625 L 20.8125 -9.25 Z M 3.328125 -9.25 "/></g></g></g><g fill="#000000" fill-opacity="1"><g transform="translate(261.599298, 515.75663)"><g><path d="M 1.15625 -36.765625 L 30.671875 -36.765625 L 30.671875 -28.28125 L 20.984375 -28.28125 L 20.984375 0 L 10.84375 0 L 10.84375 -28.28125 L 1.15625 -28.28125 Z M 1.15625 -36.765625 "/></g></g></g><g fill="#000000" fill-opacity="1"><g transform="translate(293.365571, 515.75663)"><g><path d="M 1.65625 0 L 1.65625 -38.09375 L 11.515625 -38.09375 L 11.453125 -26.90625 C 12.566406 -27.53125 13.738281 -28.054688 14.96875 -28.484375 C 16.207031 -28.910156 17.472656 -29.125 18.765625 -29.125 C 21.085938 -29.125 23.0625 -28.78125 24.6875 -28.09375 C 26.3125 -27.414062 27.628906 -26.457031 28.640625 -25.21875 C 29.660156 -23.976562 30.390625 -22.5 30.828125 -20.78125 C 31.273438 -19.070312 31.5 -17.164062 31.5 -15.0625 L 31.5 0 L 21.53125 0 L 21.53125 -14.890625 C 21.53125 -15.703125 21.457031 -16.550781 21.3125 -17.4375 C 21.164062 -18.320312 20.816406 -19.078125 20.265625 -19.703125 C 19.785156 -20.179688 19.226562 -20.484375 18.59375 -20.609375 C 17.96875 -20.742188 17.34375 -20.8125 16.71875 -20.8125 C 15.832031 -20.8125 15.066406 -20.632812 14.421875 -20.28125 C 13.773438 -19.9375 13.238281 -19.46875 12.8125 -18.875 C 12.382812 -18.28125 12.066406 -17.613281 11.859375 -16.875 C 11.660156 -16.144531 11.5625 -15.390625 11.5625 -14.609375 L 11.5625 0 Z M 1.65625 0 "/></g></g></g><g fill="#000000" fill-opacity="1"><g transform="translate(326.681407, 515.75663)"><g><path d="M 1.21875 -14.0625 C 1.21875 -16.3125 1.59375 -18.359375 2.34375 -20.203125 C 3.101562 -22.046875 4.15625 -23.628906 5.5 -24.953125 C 6.851562 -26.285156 8.453125 -27.3125 10.296875 -28.03125 C 12.140625 -28.757812 14.148438 -29.125 16.328125 -29.125 C 19.171875 -29.125 21.789062 -28.3125 24.1875 -26.6875 L 24.53125 -28.171875 L 32.9375 -28.171875 L 32.9375 0 L 24.53125 0 L 24.1875 -1.5 C 23.039062 -0.6875 21.796875 -0.078125 20.453125 0.328125 C 19.109375 0.734375 17.734375 0.9375 16.328125 0.9375 C 14.117188 0.9375 12.085938 0.5625 10.234375 -0.1875 C 8.390625 -0.945312 6.796875 -1.988281 5.453125 -3.3125 C 4.109375 -4.644531 3.066406 -6.234375 2.328125 -8.078125 C 1.585938 -9.921875 1.21875 -11.914062 1.21875 -14.0625 Z M 11.125 -14.109375 C 11.125 -13.222656 11.269531 -12.363281 11.5625 -11.53125 C 11.863281 -10.707031 12.289062 -9.984375 12.84375 -9.359375 C 13.394531 -8.734375 14.046875 -8.234375 14.796875 -7.859375 C 15.554688 -7.492188 16.398438 -7.3125 17.328125 -7.3125 C 18.660156 -7.3125 19.820312 -7.671875 20.8125 -8.390625 C 21.8125 -9.109375 22.550781 -10.078125 23.03125 -11.296875 C 23.320312 -12.398438 23.46875 -13.335938 23.46875 -14.109375 C 23.46875 -15.035156 23.328125 -15.90625 23.046875 -16.71875 C 22.773438 -17.53125 22.378906 -18.238281 21.859375 -18.84375 C 21.347656 -19.457031 20.703125 -19.9375 19.921875 -20.28125 C 19.148438 -20.632812 18.265625 -20.8125 17.265625 -20.8125 C 16.273438 -20.8125 15.398438 -20.632812 14.640625 -20.28125 C 13.878906 -19.9375 13.238281 -19.457031 12.71875 -18.84375 C 12.207031 -18.238281 11.8125 -17.53125 11.53125 -16.71875 C 11.257812 -15.90625 11.125 -15.035156 11.125 -14.109375 Z M 11.125 -14.109375 "/></g></g></g><g fill="#000000" fill-opacity="1"><g transform="translate(361.934214, 515.75663)"><g><path d="M 1.4375 -28.171875 L 11.453125 -28.171875 L 11.453125 0 L 1.4375 0 Z M 0.78125 -35.546875 C 0.78125 -36.359375 0.9375 -37.066406 1.25 -37.671875 C 1.5625 -38.273438 1.984375 -38.789062 2.515625 -39.21875 C 3.054688 -39.644531 3.675781 -39.957031 4.375 -40.15625 C 5.070312 -40.363281 5.789062 -40.46875 6.53125 -40.46875 C 7.269531 -40.46875 7.988281 -40.363281 8.6875 -40.15625 C 9.394531 -39.957031 10.015625 -39.644531 10.546875 -39.21875 C 11.078125 -38.789062 11.5 -38.273438 11.8125 -37.671875 C 12.132812 -37.066406 12.296875 -36.359375 12.296875 -35.546875 C 12.296875 -34.734375 12.128906 -34.007812 11.796875 -33.375 C 11.460938 -32.75 11.023438 -32.222656 10.484375 -31.796875 C 9.953125 -31.378906 9.332031 -31.066406 8.625 -30.859375 C 7.925781 -30.660156 7.210938 -30.5625 6.484375 -30.5625 C 5.742188 -30.5625 5.003906 -30.679688 4.265625 -30.921875 C 3.523438 -31.160156 2.894531 -31.535156 2.375 -32.046875 C 1.894531 -32.453125 1.507812 -32.976562 1.21875 -33.625 C 0.925781 -34.269531 0.78125 -34.910156 0.78125 -35.546875 Z M 0.78125 -35.546875 "/></g></g></g><g fill="#000000" fill-opacity="1"><g transform="translate(375.492995, 515.75663)"><g><path d="M 2.15625 0 L 2.15625 -38.09375 L 12.0625 -38.09375 L 12.0625 0 Z M 2.15625 0 "/></g></g></g><g fill="#000000" fill-opacity="1"><g transform="translate(389.383823, 515.75663)"><g><path d="M 1.21875 -14.0625 C 1.21875 -16.3125 1.59375 -18.359375 2.34375 -20.203125 C 3.101562 -22.046875 4.15625 -23.628906 5.5 -24.953125 C 6.851562 -26.285156 8.453125 -27.3125 10.296875 -28.03125 C 12.140625 -28.757812 14.148438 -29.125 16.328125 -29.125 C 19.171875 -29.125 21.789062 -28.3125 24.1875 -26.6875 L 24.53125 -28.171875 L 32.9375 -28.171875 L 32.9375 0 L 24.53125 0 L 24.1875 -1.5 C 23.039062 -0.6875 21.796875 -0.078125 20.453125 0.328125 C 19.109375 0.734375 17.734375 0.9375 16.328125 0.9375 C 14.117188 0.9375 12.085938 0.5625 10.234375 -0.1875 C 8.390625 -0.945312 6.796875 -1.988281 5.453125 -3.3125 C 4.109375 -4.644531 3.066406 -6.234375 2.328125 -8.078125 C 1.585938 -9.921875 1.21875 -11.914062 1.21875 -14.0625 Z M 11.125 -14.109375 C 11.125 -13.222656 11.269531 -12.363281 11.5625 -11.53125 C 11.863281 -10.707031 12.289062 -9.984375 12.84375 -9.359375 C 13.394531 -8.734375 14.046875 -8.234375 14.796875 -7.859375 C 15.554688 -7.492188 16.398438 -7.3125 17.328125 -7.3125 C 18.660156 -7.3125 19.820312 -7.671875 20.8125 -8.390625 C 21.8125 -9.109375 22.550781 -10.078125 23.03125 -11.296875 C 23.320312 -12.398438 23.46875 -13.335938 23.46875 -14.109375 C 23.46875 -15.035156 23.328125 -15.90625 23.046875 -16.71875 C 22.773438 -17.53125 22.378906 -18.238281 21.859375 -18.84375 C 21.347656 -19.457031 20.703125 -19.9375 19.921875 -20.28125 C 19.148438 -20.632812 18.265625 -20.8125 17.265625 -20.8125 C 16.273438 -20.8125 15.398438 -20.632812 14.640625 -20.28125 C 13.878906 -19.9375 13.238281 -19.457031 12.71875 -18.84375 C 12.207031 -18.238281 11.8125 -17.53125 11.53125 -16.71875 C 11.257812 -15.90625 11.125 -15.035156 11.125 -14.109375 Z M 11.125 -14.109375 "/></g></g></g><g fill="#000000" fill-opacity="1"><g transform="translate(424.636659, 515.75663)"><g><path d="M 1.765625 0 L 1.765625 -28.171875 L 9.75 -28.171875 L 10.234375 -24.6875 C 11.347656 -26.050781 12.707031 -27.128906 14.3125 -27.921875 C 15.914062 -28.722656 17.4375 -29.125 18.875 -29.125 C 21.125 -29.125 23.050781 -28.789062 24.65625 -28.125 C 26.269531 -27.457031 27.59375 -26.515625 28.625 -25.296875 C 29.65625 -24.078125 30.410156 -22.597656 30.890625 -20.859375 C 31.367188 -19.128906 31.609375 -17.195312 31.609375 -15.0625 L 31.609375 0 L 21.640625 0 L 21.640625 -14.84375 C 21.640625 -15.570312 21.582031 -16.296875 21.46875 -17.015625 C 21.363281 -17.742188 21.160156 -18.382812 20.859375 -18.9375 C 20.566406 -19.488281 20.132812 -19.9375 19.5625 -20.28125 C 19 -20.632812 18.273438 -20.8125 17.390625 -20.8125 C 16.390625 -20.8125 15.53125 -20.625 14.8125 -20.25 C 14.09375 -19.882812 13.5 -19.378906 13.03125 -18.734375 C 12.570312 -18.085938 12.234375 -17.347656 12.015625 -16.515625 C 11.796875 -15.691406 11.6875 -14.816406 11.6875 -13.890625 L 11.6875 0 Z M 1.765625 0 "/></g></g></g><g fill="#000000" fill-opacity="1"><g transform="translate(458.063195, 515.75663)"><g><path d="M 1.046875 -14.0625 C 1.046875 -16.3125 1.414062 -18.359375 2.15625 -20.203125 C 2.894531 -22.046875 3.925781 -23.628906 5.25 -24.953125 C 6.582031 -26.285156 8.160156 -27.320312 9.984375 -28.0625 C 11.816406 -28.800781 13.820312 -29.171875 16 -29.171875 C 17.289062 -29.171875 18.46875 -29.03125 19.53125 -28.75 C 20.601562 -28.476562 21.710938 -28.03125 22.859375 -27.40625 L 22.859375 -38.09375 L 32.765625 -38.09375 L 32.765625 0 L 24.359375 0 L 24.03125 -1.65625 C 22.84375 -0.8125 21.617188 -0.160156 20.359375 0.296875 C 19.109375 0.765625 17.710938 1 16.171875 1 C 13.953125 1 11.921875 0.625 10.078125 -0.125 C 8.234375 -0.882812 6.632812 -1.9375 5.28125 -3.28125 C 3.9375 -4.632812 2.894531 -6.234375 2.15625 -8.078125 C 1.414062 -9.921875 1.046875 -11.914062 1.046875 -14.0625 Z M 10.96875 -14.109375 C 10.96875 -13.191406 11.113281 -12.328125 11.40625 -11.515625 C 11.695312 -10.703125 12.109375 -9.984375 12.640625 -9.359375 C 13.179688 -8.734375 13.835938 -8.234375 14.609375 -7.859375 C 15.390625 -7.492188 16.238281 -7.3125 17.15625 -7.3125 C 18.113281 -7.3125 18.972656 -7.492188 19.734375 -7.859375 C 20.492188 -8.234375 21.140625 -8.722656 21.671875 -9.328125 C 22.203125 -9.929688 22.613281 -10.648438 22.90625 -11.484375 C 23.207031 -12.316406 23.359375 -13.191406 23.359375 -14.109375 C 23.359375 -15.515625 23.050781 -16.757812 22.4375 -17.84375 C 21.832031 -18.9375 20.882812 -19.78125 19.59375 -20.375 C 18.519531 -20.664062 17.691406 -20.8125 17.109375 -20.8125 C 16.109375 -20.8125 15.226562 -20.632812 14.46875 -20.28125 C 13.71875 -19.9375 13.082031 -19.457031 12.5625 -18.84375 C 12.050781 -18.238281 11.65625 -17.53125 11.375 -16.71875 C 11.101562 -15.90625 10.96875 -15.035156 10.96875 -14.109375 Z M 10.96875 -14.109375 "/></g></g></g></svg>